<svg xmlns="http://www.w3.org/2000/svg" viewBox="0 0 612.43 713.82"><defs><style>.cls-1{isolation:isolate;}.cls-2{fill:#936052;}.cls-3{fill:#a36652;}.cls-4{fill:#e2b74b;}.cls-5{fill:#272525;opacity:0.1;mix-blend-mode:multiply;}</style></defs><title>logo</title><g class="cls-1"><g id="Objects"><rect class="cls-2" x="89.68" y="220.82" width="202.1" height="136.08" transform="translate(-172.71 195.41) rotate(-44.61)"/><path class="cls-3" d="M178.74,435.45,171,443.1c-11.64,11.45-34.89,6.68-51.93-10.64l-72.81-74c-17-17.33-21.42-40.65-9.78-52.1l7.77-7.65c4.23-4.16,12.67-2.43,18.86,3.86l112.11,114C181.38,422.82,183,431.29,178.74,435.45Z" transform="translate(-24.8 -21.78)"/><path class="cls-2" d="M160.36,448.72c-12.25,2.68-28.52-3.25-41.3-16.25l-72.81-74c-12.78-13-18.44-29.37-15.56-41.57Z" transform="translate(-24.8 -21.78)"/><path class="cls-3" d="M334.14,283.18l7.81-7.73c11.69-11.58,7.21-35.07-10-52.48L258.31,148.6c-17.23-17.41-40.68-22.13-52.37-10.56l-7.81,7.73c-4.25,4.2-2.62,12.73,3.64,19.06L315.12,279.35C321.38,285.67,329.89,287.38,334.14,283.18Z" transform="translate(-24.8 -21.78)"/><path class="cls-2" d="M347.76,264.83c2.86-12.31-2.89-28.79-15.81-41.84l-73.62-74.37c-12.92-13.05-29.34-19-41.68-16.24Z" transform="translate(-24.8 -21.78)"/><path class="cls-4" d="M305.46,294.36l-14.69,10.86a422,422,0,0,0-85.9,85l-10.18,13.47L76,283.37l21.2-13.66A258.45,258.45,0,0,0,172,196.17l14.78-22.1Z" transform="translate(-24.8 -21.78)"/><path class="cls-3" d="M304.23,300.1l-.09.09a6.25,6.25,0,0,1-8.84-.06l-114.43-116a6.25,6.25,0,0,1,.06-8.84l.09-.09a6.25,6.25,0,0,1,8.84.06l114.43,116A6.25,6.25,0,0,1,304.23,300.1Z" transform="translate(-24.8 -21.78)"/><path class="cls-3" d="M194.48,408.39l-.09.09a6.25,6.25,0,0,1-8.84-.06l-114.43-116a6.25,6.25,0,0,1,.06-8.84l.09-.09a6.25,6.25,0,0,1,8.84.06l114.43,116A6.25,6.25,0,0,1,194.48,408.39Z" transform="translate(-24.8 -21.78)"/><path class="cls-2" d="M623.82,682.13,304.53,380.55l-17.11,22.58L585.62,720.4c19.25,20.18,31,17.79,41.77,7.14S644,701.6,623.82,682.13Z" transform="translate(-24.8 -21.78)"/><path class="cls-2" d="M318.31,367.86c-2.53-2.56-8.56-.83-14.35,3.8C298.27,351,286,330.59,265.29,325.6l-5.19,4.57-25.45,24.78L230,360c4.88,20.92,25.43,33.38,46.17,39.15-4.87,5.82-6.76,12-4.18,14.6l.11.11c2.95,3,10.63.16,17.16-6.3l22.69-22.46c6.53-6.46,9.43-14.11,6.48-17.09Z" transform="translate(-24.8 -21.78)"/><path class="cls-4" d="M210.93,93.78,169.75,67.93a8.46,8.46,0,0,1-2.14-12.41l.12-.15a8.46,8.46,0,0,1,12.9-.46l32.76,35.94A1.93,1.93,0,0,1,210.93,93.78Z" transform="translate(-24.8 -21.78)"/><path class="cls-4" d="M247.93,85.4l28.38-32.66a7.53,7.53,0,0,1,11.2-.18l.12.13a7.53,7.53,0,0,1-1.37,11.4L250.18,88A1.72,1.72,0,0,1,247.93,85.4Z" transform="translate(-24.8 -21.78)"/><path class="cls-4" d="M229.21,77.84l-4.37-47.07a8.23,8.23,0,0,1,8.31-9h.19a8.23,8.23,0,0,1,8,9.69L232.93,78A1.88,1.88,0,0,1,229.21,77.84Z" transform="translate(-24.8 -21.78)"/><path class="cls-2" d="M245.31,725H46.57V710.19a20,20,0,0,1,20-20H225.27a20,20,0,0,1,20,20Z" transform="translate(-24.8 -21.78)"/><rect class="cls-3" y="688.22" width="245.77" height="25.6" rx="4.63" ry="4.63"/><path class="cls-5" d="M245.31,710.19H46.57v-2.73a3.22,3.22,0,0,1,3.22-3.22l195.07,4.53Z" transform="translate(-24.8 -21.78)"/></g></g></svg>